<?xml version="1.0" encoding="utf-8"?>
<!-- Generator: Adobe Illustrator 22.0.1, SVG Export Plug-In . SVG Version: 6.00 Build 0)  -->
<svg version="1.1" id="レイヤー_1" xmlns="http://www.w3.org/2000/svg" xmlns:xlink="http://www.w3.org/1999/xlink" x="0px"
	 y="0px" viewBox="0 0 500 194.7" style="enable-background:new 0 0 500 194.7;" xml:space="preserve">
<style type="text/css">
	.st0{fill:#009CFF;}
</style>
<g id="pixivLogo">
</g>
<g id="レイヤー_1_1_">
	<g>
		<path class="st0" d="M144.3,56.5c-11.2-9.7-26.8-15.4-44.9-15.4c-47.3,0-79.5,36.5-79.5,36.5L28.9,92c0,0,5,0.4,2.4-8.1
			c2.3-4.3,6.8-10.2,15.6-16.9c0,0,0,90.9,0,95.8c-3.8,1.1-8.8,3.1-5.4,6.5c5.8,0,21.7,0,26.1,0c3.4-3.4-2-5.5-5.3-6.5
			c0-3.7,0-22.6,0-22.6s17.9,7,37.1,7c16.9,0,32.3-5,43.8-14.1c11.5-9,18.8-22.5,18.8-37.9C161.9,80.1,155.4,66.2,144.3,56.5z
			 M130.5,125.7c-7.9,7.8-19.4,12.8-32.7,12.7c-14.8,0-27.3-2.9-35.5-6.9c0,0,0-2.5,0-20.6c0-19.6,0-51.3,0-51.3
			c9-6.4,23.7-10.4,35.5-10.3c14.4,0,25.7,5.4,33.3,13.7c7.6,8.3,11.8,19.3,11.8,32.1C142.8,107.5,138.4,117.8,130.5,125.7z"/>
		<path class="st0" d="M184.9,41.2h-5.3c-2.4,0-4.3,1.9-4.3,4.3v98c0,2.4,1.9,4.3,4.3,4.3h5.3c2.4,0,4.3-1.9,4.3-4.3v-98
			C189.2,43.1,187.3,41.2,184.9,41.2z"/>
		<path class="st0" d="M323.6,41.2h-5.3c-2.4,0-4.3,1.9-4.3,4.3v98c0,2.4,1.9,4.3,4.3,4.3h5.3c2.4,0,4.3-1.9,4.3-4.3v-98
			C327.9,43.1,326,41.2,323.6,41.2z"/>
		<path class="st0" d="M448.4,41.2c-3.6,0-0.9,0-4.9,0c-3.9,0-5,0.5-6.7,4c-1.7,3.5-40.2,79.6-40.2,79.6s-38.4-76.2-40.2-79.6
			c-1.7-3.5-2.8-4-6.7-4c-4,0-1.3,0-4.9,0s-5.6,1.6-3.5,5.7c2.1,4.1,49.4,97,49.4,97c1.2,2.4,3.5,3.8,6,3.8c2.5,0,4.7-1.4,6-3.8v0
			c0.1-0.2,47.3-92.9,49.4-97C454,42.8,452,41.2,448.4,41.2z"/>
		<path class="st0" d="M281.7,144.1c2,2.6,3.4,3.6,7.3,3.6c3.9,0,2.9,0,8,0s3.2-2.3,1.8-4.1c-3.5-4.7-38.4-49-38.4-49
			s36.1-44.6,39.7-49.3c1.4-1.9,3.2-4.1-1.8-4.1c-5,0-4.1,0-8,0c-3.9,0-5.3,1-7.3,3.6c-2,2.6-31.4,38.7-31.4,38.7
			s-29.4-36.1-31.4-38.7c-2-2.6-3.4-3.6-7.3-3.6c-3.9,0-2.9,0-8,0c-5,0-3.2,2.3-1.8,4.1c3.5,4.7,39.7,49.3,39.7,49.3
			s-35.9,44.3-39.5,49c-1.4,1.9-3.2,4.1,1.8,4.1c5,0,4.1,0,8,0c3.9,0,5.3-1,7.3-3.6c2-2.6,31.2-38.4,31.2-38.4
			S279.7,141.6,281.7,144.1z"/>
		<path class="st0" d="M182.3,0c-3.2,0-5.8,1.1-7.9,3.2c-2.1,2.1-3.2,4.7-3.2,7.9c0,3.2,1.1,5.8,3.2,7.9c2.1,2.1,4.7,3.2,7.9,3.2
			c3.2,0,5.8-1.1,7.9-3.2c2.1-2.1,3.2-4.7,3.2-7.9c0-3.2-1.1-5.8-3.2-7.9C188.1,1.1,185.4,0,182.3,0z"/>
		<path class="st0" d="M321,0c-3.2,0-5.8,1.1-7.9,3.2c-2.1,2.1-3.2,4.7-3.2,7.9c0,3.2,1.1,5.8,3.2,7.9c2.1,2.1,4.7,3.2,7.9,3.2
			c3.2,0,5.8-1.1,7.9-3.2c2.1-2.1,3.2-4.7,3.2-7.9c0-3.2-1.1-5.8-3.2-7.9C326.8,1.1,324.1,0,321,0z"/>
	</g>
</g>
</svg>
